<svg width="532" height="532" viewBox="0 0 532 532" fill="none"
	xmlns="http://www.w3.org/2000/svg">
	<g filter="url(#filter0_d_610_2)">
		<rect x="10" y="6" width="512" height="512" rx="110" fill="url(#paint0_linear_610_2)"/>
		<g clip-path="url(#clip0_610_2)">
			<path d="M265.902 129.431C264.742 129.439 263.595 129.676 262.527 130.128C261.458 130.581 260.49 131.241 259.677 132.069L118.026 275.721C116.725 277.042 115.997 278.821 116 280.675C116.002 282.552 116.749 284.352 118.076 285.679C119.403 287.006 121.203 287.753 123.08 287.755H149.375V388.684C149.375 391.938 152.005 394.568 155.259 394.568H254.6V348.523L216.462 310.34C212.718 311.934 208.691 312.756 204.621 312.756C187.897 312.756 174.349 299.171 174.349 282.435C174.349 265.698 187.899 252.136 204.621 252.136C221.346 252.136 234.896 265.699 234.896 282.435C234.896 286.634 234.046 290.639 232.502 294.275L254.597 316.37V249.183C243.5 244.688 235.654 233.8 235.654 221.083C235.654 204.345 249.227 190.76 265.951 190.76C282.676 190.76 296.225 204.345 296.225 221.083C296.225 233.8 288.401 244.688 277.304 249.183V316.37L299.374 294.275C297.788 290.529 296.975 286.502 296.981 282.435C296.981 265.698 310.556 252.136 327.279 252.136C344.004 252.136 357.554 265.699 357.554 282.435C357.554 299.171 344.004 312.756 327.279 312.756C323.21 312.755 319.183 311.934 315.439 310.34L277.304 348.524V394.569H376.645C377.418 394.57 378.183 394.418 378.898 394.123C379.612 393.827 380.261 393.394 380.807 392.847C381.354 392.301 381.787 391.652 382.082 390.938C382.378 390.223 382.529 389.458 382.529 388.685V287.756H408.92C410.773 287.753 412.551 287.027 413.876 285.731C416.667 283 416.704 278.513 413.974 275.721L382.529 243.568V192.884C382.529 189.63 379.899 186.975 376.645 186.975H352.084C348.83 186.975 346.2 189.63 346.2 192.884V206.678L272.25 132.044C271.42 131.206 270.431 130.543 269.341 130.095C268.251 129.646 267.081 129.42 265.902 129.431V129.431ZM265.951 208.949C259.261 208.949 253.841 214.388 253.841 221.083C253.841 227.776 259.261 233.191 265.951 233.191C267.542 233.192 269.116 232.879 270.586 232.271C272.055 231.663 273.39 230.771 274.515 229.646C275.639 228.522 276.531 227.187 277.14 225.717C277.748 224.248 278.061 222.673 278.06 221.083C278.06 214.388 272.641 208.949 265.951 208.949ZM204.622 270.325C203.032 270.324 201.457 270.637 199.988 271.246C198.518 271.854 197.183 272.746 196.058 273.871C194.934 274.995 194.042 276.331 193.434 277.8C192.826 279.27 192.513 280.845 192.514 282.435C192.514 289.129 197.934 294.569 204.622 294.569C211.312 294.569 216.732 289.129 216.732 282.435C216.733 280.844 216.421 279.269 215.812 277.8C215.204 276.33 214.312 274.995 213.187 273.87C212.063 272.745 210.727 271.853 209.258 271.245C207.788 270.637 206.213 270.324 204.622 270.325ZM327.279 270.325C320.59 270.325 315.145 275.74 315.145 282.435C315.145 289.129 320.59 294.569 327.279 294.569C333.969 294.569 339.389 289.129 339.389 282.435C339.389 280.844 339.077 279.269 338.469 277.8C337.86 276.33 336.968 274.995 335.844 273.87C334.719 272.745 333.384 271.853 331.914 271.245C330.444 270.637 328.869 270.324 327.279 270.325V270.325Z" fill="white"/>
		</g>
	</g>
	<defs>
		<filter id="filter0_d_610_2" x="0" y="0" width="532" height="532" filterUnits="userSpaceOnUse" color-interpolation-filters="sRGB">
			<feFlood flood-opacity="0" result="BackgroundImageFix"/>
			<feColorMatrix in="SourceAlpha" type="matrix" values="0 0 0 0 0 0 0 0 0 0 0 0 0 0 0 0 0 0 127 0" result="hardAlpha"/>
			<feOffset dy="4"/>
			<feGaussianBlur stdDeviation="5"/>
			<feColorMatrix type="matrix" values="0 0 0 0 0 0 0 0 0 0 0 0 0 0 0 0 0 0 0.2 0"/>
			<feBlend mode="normal" in2="BackgroundImageFix" result="effect1_dropShadow_610_2"/>
			<feBlend mode="normal" in="SourceGraphic" in2="effect1_dropShadow_610_2" result="shape"/>
		</filter>
		<linearGradient id="paint0_linear_610_2" x1="517.145" y1="518" x2="10" y2="518" gradientUnits="userSpaceOnUse">
			<stop stop-color="#5ABFC6"/>
			<stop offset="1" stop-color="#204CBF"/>
		</linearGradient>
		<clipPath id="clip0_610_2">
			<rect width="300" height="300" fill="white" transform="translate(116 112)"/>
		</clipPath>
	</defs>
</svg>
